<svg width="450" height="146" viewBox="0 0 450 146" fill="none" xmlns="http://www.w3.org/2000/svg">
<path d="M84.4045 17.0285L73.7183 10.2864C70.4038 8.19525 66.0918 9.23006 64.0874 12.5978L3.68005 114.087C1.67557 117.455 2.7376 121.88 6.05214 123.972L16.7383 130.714C20.0529 132.805 24.3648 131.77 26.3693 128.402L86.7766 26.9127C88.7811 23.545 87.7191 19.1197 84.4045 17.0285Z" fill="black"/>
<path fill-rule="evenodd" clip-rule="evenodd" d="M107.752 58.962C105.041 54.128 98.0838 54.128 95.3732 58.962L59.0928 123.659C56.4403 128.389 59.859 134.226 65.2823 134.226H75.1689L96.0873 99.081C98.0918 95.714 102.404 94.6791 105.718 96.7701L116.404 103.512C119.719 105.603 120.781 110.029 118.777 113.396L106.379 134.226H137.843C143.266 134.226 146.685 128.389 144.032 123.659L107.752 58.962Z" fill="black"/>
<path d="M245.237 51.5H254.197V115.5H245.237L244.917 103.596C242.827 107.649 239.904 110.935 236.149 113.452C232.395 115.927 227.915 117.164 222.709 117.164C218.016 117.164 213.621 116.289 209.525 114.54C205.429 112.748 201.824 110.295 198.709 107.18C195.595 104.065 193.163 100.46 191.413 96.364C189.664 92.268 188.789 87.873 188.789 83.18C188.789 78.572 189.643 74.241 191.349 70.188C193.099 66.135 195.488 62.572 198.517 59.5C201.589 56.428 205.131 54.039 209.141 52.332C213.195 50.583 217.525 49.708 222.133 49.708C227.467 49.708 232.117 50.988 236.085 53.548C240.053 56.065 243.211 59.372 245.557 63.468L245.237 51.5ZM222.517 108.46C227.083 108.46 231.008 107.351 234.293 105.132C237.579 102.871 240.096 99.841 241.845 96.044C243.637 92.247 244.533 88.065 244.533 83.5C244.533 78.807 243.637 74.583 241.845 70.828C240.053 67.031 237.515 64.023 234.229 61.804C230.944 59.585 227.04 58.476 222.517 58.476C217.995 58.476 213.856 59.607 210.101 61.868C206.389 64.087 203.424 67.095 201.205 70.892C199.029 74.689 197.941 78.892 197.941 83.5C197.941 88.151 199.072 92.375 201.333 96.172C203.595 99.927 206.581 102.913 210.293 105.132C214.048 107.351 218.123 108.46 222.517 108.46ZM311.45 99.436L319.45 103.788C316.549 107.841 312.858 111.084 308.378 113.516C303.941 115.948 299.12 117.164 293.914 117.164C288.026 117.164 282.65 115.649 277.786 112.62C272.965 109.591 269.104 105.537 266.202 100.46C263.344 95.34 261.914 89.687 261.914 83.5C261.914 78.807 262.746 74.433 264.41 70.38C266.074 66.284 268.357 62.7 271.258 59.628C274.202 56.513 277.616 54.081 281.498 52.332C285.381 50.583 289.52 49.708 293.914 49.708C299.12 49.708 303.941 50.924 308.378 53.356C312.858 55.788 316.549 59.052 319.45 63.148L311.45 67.436C309.232 64.62 306.565 62.465 303.45 60.972C300.336 59.436 297.157 58.668 293.914 58.668C289.605 58.668 285.701 59.82 282.202 62.124C278.704 64.385 275.93 67.393 273.882 71.148C271.877 74.903 270.874 79.02 270.874 83.5C270.874 87.98 271.898 92.097 273.946 95.852C276.037 99.607 278.832 102.615 282.33 104.876C285.829 107.095 289.69 108.204 293.914 108.204C297.413 108.204 300.698 107.393 303.77 105.772C306.842 104.151 309.402 102.039 311.45 99.436ZM358.289 117.164C352.401 117.164 347.025 115.649 342.161 112.62C337.34 109.591 333.479 105.537 330.577 100.46C327.719 95.34 326.289 89.687 326.289 83.5C326.289 78.807 327.121 74.433 328.785 70.38C330.449 66.284 332.732 62.7 335.633 59.628C338.577 56.513 341.991 54.081 345.873 52.332C349.756 50.583 353.895 49.708 358.289 49.708C364.177 49.708 369.532 51.223 374.353 54.252C379.217 57.281 383.079 61.356 385.937 66.476C388.839 71.596 390.289 77.271 390.289 83.5C390.289 88.151 389.457 92.503 387.793 96.556C386.129 100.609 383.825 104.193 380.881 107.308C377.98 110.38 374.588 112.791 370.705 114.54C366.865 116.289 362.727 117.164 358.289 117.164ZM358.289 108.204C362.641 108.204 366.545 107.073 370.001 104.812C373.5 102.508 376.252 99.479 378.257 95.724C380.305 91.969 381.329 87.895 381.329 83.5C381.329 79.02 380.305 74.903 378.257 71.148C376.209 67.351 373.436 64.321 369.937 62.06C366.481 59.799 362.599 58.668 358.289 58.668C353.937 58.668 350.012 59.82 346.513 62.124C343.057 64.385 340.305 67.393 338.257 71.148C336.252 74.903 335.249 79.02 335.249 83.5C335.249 88.108 336.295 92.289 338.385 96.044C340.476 99.756 343.271 102.721 346.769 104.94C350.268 107.116 354.108 108.204 358.289 108.204ZM421.03 116.716C417.532 116.631 414.118 115.991 410.79 114.796C407.462 113.601 404.561 111.98 402.086 109.932C399.612 107.884 397.841 105.559 396.774 102.956L404.518 99.628C405.201 101.292 406.46 102.828 408.294 104.236C410.172 105.601 412.305 106.711 414.694 107.564C417.084 108.375 419.452 108.78 421.798 108.78C424.401 108.78 426.833 108.353 429.094 107.5C431.356 106.647 433.19 105.431 434.598 103.852C436.049 102.231 436.774 100.332 436.774 98.156C436.774 95.809 436.006 93.975 434.47 92.652C432.934 91.287 430.993 90.22 428.646 89.452C426.3 88.641 423.889 87.873 421.414 87.148C416.892 85.911 412.902 84.545 409.446 83.052C405.99 81.559 403.281 79.66 401.318 77.356C399.398 75.009 398.438 72.001 398.438 68.332C398.438 64.449 399.526 61.1 401.702 58.284C403.921 55.425 406.801 53.228 410.342 51.692C413.926 50.113 417.745 49.324 421.798 49.324C427.004 49.324 431.74 50.455 436.006 52.716C440.316 54.977 443.43 57.985 445.35 61.74L438.118 66.028C437.35 64.279 436.134 62.764 434.47 61.484C432.806 60.204 430.908 59.201 428.774 58.476C426.684 57.751 424.55 57.367 422.374 57.324C419.644 57.281 417.105 57.687 414.758 58.54C412.412 59.351 410.513 60.567 409.062 62.188C407.654 63.809 406.95 65.793 406.95 68.14C406.95 70.487 407.654 72.279 409.062 73.516C410.47 74.711 412.369 75.692 414.758 76.46C417.19 77.185 419.921 78.039 422.95 79.02C426.833 80.257 430.481 81.665 433.894 83.244C437.308 84.823 440.06 86.785 442.15 89.132C444.241 91.479 445.265 94.444 445.222 98.028C445.222 101.868 444.07 105.217 441.766 108.076C439.462 110.935 436.476 113.132 432.806 114.668C429.137 116.161 425.212 116.844 421.03 116.716Z" fill="black"/>
</svg>
