<svg width="926" height="323" viewBox="0 0 926 323" fill="none" xmlns="http://www.w3.org/2000/svg">
<path d="M174.181 41.5003L152.215 27.6726C145.402 23.3837 136.539 25.506 132.418 32.413L8.24781 240.564C4.1275 247.471 6.31054 256.547 13.1238 260.836L35.0898 274.664C41.9031 278.953 50.7665 276.83 54.8868 269.923L179.057 61.7724C183.178 54.8654 180.995 45.7893 174.181 41.5003Z" fill="url(#paint0_linear_122_14)"/>
<path fill-rule="evenodd" clip-rule="evenodd" d="M222.173 127.504C216.601 117.59 202.3 117.59 196.728 127.504L122.152 260.195C116.699 269.896 123.727 281.867 134.874 281.867H155.197L198.196 209.786C202.316 202.881 211.18 200.758 217.992 205.047L239.958 218.874C246.772 223.163 248.955 232.24 244.836 239.146L219.351 281.867H284.027C295.174 281.867 302.202 269.896 296.749 260.195L222.173 127.504Z" fill="url(#paint1_linear_122_14)"/>
<path d="M504.782 112.2H523.199V243.461H504.782L504.124 219.046C499.828 227.359 493.819 234.098 486.101 239.261C478.384 244.337 469.175 246.874 458.474 246.874C448.827 246.874 439.793 245.079 431.373 241.492C422.954 237.817 415.544 232.786 409.141 226.397C402.74 220.008 397.74 212.615 394.143 204.214C390.548 195.813 388.75 186.799 388.75 177.174C388.75 167.723 390.505 158.841 394.012 150.528C397.609 142.215 402.52 134.908 408.746 128.607C415.061 122.307 422.341 117.407 430.584 113.906C438.917 110.319 447.818 108.524 457.29 108.524C468.254 108.524 477.813 111.15 485.969 116.4C494.126 121.562 500.617 128.345 505.439 136.746L504.782 112.2ZM458.079 229.022C467.465 229.022 475.533 226.748 482.286 222.197C489.04 217.559 494.214 211.345 497.809 203.558C501.493 195.77 503.334 187.193 503.334 177.83C503.334 168.205 501.493 159.542 497.809 151.841C494.126 144.053 488.909 137.884 482.154 133.333C475.401 128.782 467.377 126.507 458.079 126.507C448.784 126.507 440.276 128.827 432.558 133.464C424.927 138.015 418.833 144.184 414.271 151.972C409.798 159.759 407.562 168.38 407.562 177.83C407.562 187.369 409.887 196.033 414.534 203.82C419.184 211.521 425.322 217.646 432.952 222.197C440.671 226.748 449.047 229.022 458.079 229.022ZM640.886 210.514L657.33 219.44C651.367 227.753 643.78 234.404 634.571 239.392C625.451 244.38 615.541 246.874 604.84 246.874C592.737 246.874 581.686 243.766 571.688 237.554C561.778 231.342 553.841 223.027 547.876 212.615C542.001 202.114 539.062 190.52 539.062 177.83C539.062 168.205 540.772 159.234 544.193 150.922C547.613 142.521 552.306 135.17 558.269 128.87C564.321 122.481 571.338 117.493 579.318 113.906C587.3 110.319 595.808 108.524 604.84 108.524C615.541 108.524 625.451 111.018 634.571 116.006C643.78 120.994 651.367 127.689 657.33 136.089L640.886 144.884C636.327 139.108 630.845 134.688 624.442 131.626C618.041 128.476 611.506 126.901 604.84 126.901C595.982 126.901 587.958 129.264 580.765 133.989C573.575 138.626 567.873 144.796 563.663 152.497C559.541 160.198 557.48 168.642 557.48 177.83C557.48 187.019 559.585 195.462 563.794 203.164C568.093 210.865 573.838 217.034 581.028 221.672C588.221 226.223 596.157 228.497 604.84 228.497C612.032 228.497 618.785 226.834 625.099 223.509C631.414 220.185 636.676 215.853 640.886 210.514ZM737.166 246.874C725.063 246.874 714.012 243.766 704.014 237.554C694.104 231.342 686.168 223.027 680.203 212.615C674.328 202.114 671.388 190.52 671.388 177.83C671.388 168.205 673.099 159.234 676.519 150.922C679.94 142.521 684.632 135.17 690.595 128.87C696.647 122.481 703.665 117.493 711.644 113.906C719.626 110.319 728.134 108.524 737.166 108.524C749.269 108.524 760.277 111.632 770.187 117.844C780.185 124.056 788.123 132.414 793.998 142.915C799.963 153.416 802.944 165.055 802.944 177.83C802.944 187.369 801.234 196.295 797.813 204.608C794.393 212.92 789.657 220.271 783.605 226.659C777.642 232.96 770.67 237.905 762.688 241.492C754.795 245.079 746.289 246.874 737.166 246.874ZM737.166 228.497C746.112 228.497 754.137 226.178 761.241 221.54C768.433 216.815 774.09 210.603 778.212 202.901C782.421 195.2 784.526 186.844 784.526 177.83C784.526 168.642 782.421 160.198 778.212 152.497C774.002 144.709 768.302 138.495 761.109 133.858C754.005 129.221 746.026 126.901 737.166 126.901C728.22 126.901 720.152 129.264 712.96 133.989C705.856 138.626 700.199 144.796 695.989 152.497C691.868 160.198 689.806 168.642 689.806 177.83C689.806 187.281 691.956 195.856 696.252 203.558C700.551 211.171 706.296 217.252 713.486 221.803C720.679 226.266 728.572 228.497 737.166 228.497ZM866.134 245.955C858.943 245.781 851.926 244.468 845.085 242.017C838.244 239.566 832.281 236.242 827.193 232.041C822.108 227.841 818.467 223.072 816.274 217.734L832.192 210.908C833.596 214.321 836.184 217.471 839.954 220.359C843.815 223.158 848.199 225.435 853.11 227.185C858.023 228.848 862.89 229.678 867.712 229.678C873.063 229.678 878.062 228.803 882.71 227.053C887.359 225.304 891.129 222.81 894.024 219.571C897.006 216.247 898.496 212.352 898.496 207.889C898.496 203.076 896.918 199.314 893.76 196.601C890.603 193.801 886.613 191.613 881.789 190.038C876.967 188.374 872.011 186.799 866.923 185.312C857.628 182.775 849.426 179.974 842.322 176.911C835.218 173.849 829.65 169.955 825.615 165.229C821.668 160.416 819.695 154.246 819.695 146.721C819.695 138.758 821.931 131.889 826.404 126.113C830.965 120.25 836.885 115.744 844.164 112.594C851.531 109.355 859.381 107.737 867.712 107.737C878.414 107.737 888.149 110.056 896.918 114.694C905.777 119.331 912.178 125.5 916.125 133.202L901.259 141.996C899.68 138.409 897.181 135.302 893.76 132.676C890.34 130.051 886.439 127.994 882.052 126.507C877.756 125.02 873.369 124.233 868.896 124.145C863.285 124.056 858.066 124.889 853.241 126.638C848.419 128.302 844.516 130.796 841.533 134.12C838.639 137.445 837.192 141.514 837.192 146.328C837.192 151.141 838.639 154.817 841.533 157.354C844.427 159.804 848.331 161.816 853.241 163.392C858.24 164.879 863.854 166.63 870.08 168.642C878.062 171.179 885.561 174.067 892.576 177.305C899.594 180.544 905.251 184.568 909.547 189.381C913.845 194.195 915.95 200.276 915.862 207.627C915.862 215.502 913.494 222.371 908.758 228.235C904.022 234.098 897.884 238.604 890.34 241.755C882.798 244.817 874.73 246.217 866.134 245.955Z" fill="url(#paint2_linear_122_14)"/>
<defs>
<linearGradient id="paint0_linear_122_14" x1="163.198" y1="34.5865" x2="18.6026" y2="264.285" gradientUnits="userSpaceOnUse">
<stop/>
<stop offset="1" stop-color="#0B60B0"/>
</linearGradient>
<linearGradient id="paint1_linear_122_14" x1="209.45" y1="120.068" x2="209.45" y2="281.867" gradientUnits="userSpaceOnUse">
<stop/>
<stop offset="1" stop-color="#0B60B0"/>
</linearGradient>
<linearGradient id="paint2_linear_122_14" x1="652.437" y1="107.737" x2="652.437" y2="246.874" gradientUnits="userSpaceOnUse">
<stop/>
<stop offset="1" stop-color="#0B60B0"/>
</linearGradient>
</defs>
</svg>
