<svg width="109" height="60" viewBox="0 0 109 60" fill="none" xmlns="http://www.w3.org/2000/svg">
<g clip-path="url(#clip0_216_2)">
<path d="M20.6878 17.1154L18.1129 15.4908C17.3142 14.9869 16.2751 15.2362 15.7921 16.0477L1.23616 40.5031C0.753155 41.3145 1.00906 42.3809 1.80775 42.8848L4.38274 44.5094C5.18142 45.0133 6.22044 44.7639 6.70345 43.9524L21.2594 19.4971C21.7424 18.6856 21.4865 17.6193 20.6878 17.1154Z" fill="url(#paint0_linear_216_2)"/>
<path fill-rule="evenodd" clip-rule="evenodd" d="M26.3137 27.2198C25.6605 26.055 23.9841 26.055 23.3309 27.2198L14.5886 42.8094C13.9495 43.9492 14.7733 45.3557 16.0801 45.3557H18.4624L23.503 36.887C23.986 36.0757 25.0251 35.8263 25.8236 36.3302L28.3986 37.9547C29.1974 38.4586 29.4533 39.5251 28.9704 40.3364L25.9829 45.3557H33.5646C34.8713 45.3557 35.6952 43.9492 35.0559 42.8094L26.3137 27.2198Z" fill="url(#paint1_linear_216_2)"/>
<path d="M59.4427 25.4218H61.6017V40.8435H59.4427L59.3656 37.9751C58.8619 38.9517 58.1576 39.7435 57.2528 40.35C56.3482 40.9464 55.2687 41.2445 54.0142 41.2445C52.8834 41.2445 51.8243 41.0336 50.8374 40.6122C49.8504 40.1804 48.9817 39.5893 48.2311 38.8387C47.4807 38.0881 46.8947 37.2194 46.473 36.2324C46.0516 35.2454 45.8407 34.1864 45.8407 33.0555C45.8407 31.9452 46.0465 30.9016 46.4576 29.9249C46.8793 28.9483 47.4549 28.0898 48.1848 27.3495C48.9251 26.6093 49.7786 26.0336 50.7448 25.6223C51.7217 25.2008 52.7651 24.99 53.8754 24.99C55.1607 24.99 56.2812 25.2984 57.2374 25.9153C58.1935 26.5218 58.9545 27.3187 59.5198 28.3057L59.4427 25.4218ZM53.968 39.1471C55.0682 39.1471 56.014 38.8799 56.8055 38.3452C57.5974 37.8004 58.2039 37.0702 58.6253 36.1553C59.0571 35.2404 59.273 34.2326 59.273 33.1326C59.273 32.0018 59.0571 30.984 58.6253 30.0791C58.1935 29.1642 57.5819 28.4394 56.7901 27.9047C55.9986 27.37 55.0578 27.1028 53.968 27.1028C52.8783 27.1028 51.881 27.3753 50.9762 27.9201C50.0817 28.4548 49.3672 29.1796 48.8325 30.0946C48.3082 31.0095 48.046 32.0223 48.046 33.1326C48.046 34.2534 48.3186 35.2712 48.8634 36.1861C49.4084 37.091 50.128 37.8105 51.0224 38.3452C51.9272 38.8799 52.9092 39.1471 53.968 39.1471ZM75.3976 36.9726L77.3253 38.0213C76.6263 38.9979 75.7369 39.7794 74.6574 40.3654C73.5882 40.9514 72.4265 41.2445 71.1721 41.2445C69.7533 41.2445 68.4578 40.8794 67.2858 40.1495C66.1241 39.4196 65.1937 38.4428 64.4945 37.2194C63.8058 35.9857 63.4612 34.6235 63.4612 33.1326C63.4612 32.0018 63.6617 30.9478 64.0627 29.9712C64.4636 28.9842 65.0137 28.1206 65.7128 27.3804C66.4222 26.6298 67.2448 26.0437 68.1802 25.6223C69.1159 25.2008 70.1133 24.99 71.1721 24.99C72.4265 24.99 73.5882 25.283 74.6574 25.869C75.7369 26.4551 76.6263 27.2416 77.3253 28.2285L75.3976 29.2618C74.8631 28.5832 74.2205 28.064 73.4699 27.7042C72.7195 27.3341 71.9535 27.149 71.1721 27.149C70.1337 27.149 69.193 27.4266 68.3499 27.9818C67.507 28.5266 66.8386 29.2514 66.3451 30.1563C65.8619 31.0611 65.6202 32.0531 65.6202 33.1326C65.6202 34.2122 65.867 35.2042 66.3605 36.109C66.8643 37.0138 67.5378 37.7387 68.3807 38.2835C69.2239 38.8182 70.1542 39.0854 71.1721 39.0854C72.0152 39.0854 72.8068 38.89 73.547 38.4994C74.2872 38.1088 74.9041 37.5999 75.3976 36.9726ZM86.6841 41.2445C85.2653 41.2445 83.9699 40.8794 82.7978 40.1495C81.6362 39.4196 80.7058 38.4428 80.0065 37.2194C79.3178 35.9857 78.9733 34.6235 78.9733 33.1326C78.9733 32.0018 79.1737 30.9478 79.5747 29.9712C79.9757 28.9842 80.5258 28.1206 81.2248 27.3804C81.9342 26.6298 82.7569 26.0437 83.6923 25.6223C84.628 25.2008 85.6253 24.99 86.6841 24.99C88.1029 24.99 89.3933 25.3551 90.5549 26.0849C91.727 26.8148 92.6576 27.7967 93.3463 29.0305C94.0456 30.2642 94.3949 31.6317 94.3949 33.1326C94.3949 34.2534 94.1945 35.302 93.7935 36.2787C93.3925 37.2553 92.8374 38.1189 92.128 38.8695C91.4289 39.6098 90.6116 40.1907 89.6759 40.6122C88.7506 41.0336 87.7535 41.2445 86.6841 41.2445ZM86.6841 39.0854C87.7328 39.0854 88.6735 38.8129 89.5063 38.2681C90.3494 37.7129 91.0125 36.983 91.4957 36.0782C91.9892 35.1734 92.2359 34.1917 92.2359 33.1326C92.2359 32.0531 91.9892 31.0611 91.4957 30.1563C91.0022 29.2413 90.334 28.5112 89.4909 27.9664C88.6581 27.4216 87.7227 27.149 86.6841 27.149C85.6354 27.149 84.6896 27.4266 83.8465 27.9818C83.0137 28.5266 82.3506 29.2514 81.8571 30.1563C81.374 31.0611 81.1323 32.0531 81.1323 33.1326C81.1323 34.243 81.3843 35.2505 81.888 36.1553C82.3918 37.0498 83.0653 37.7642 83.9082 38.2989C84.7513 38.8232 85.6766 39.0854 86.6841 39.0854ZM101.802 41.1365C100.96 41.116 100.137 40.9618 99.335 40.6738C98.533 40.3859 97.834 39.9953 97.2376 39.5018C96.6415 39.0083 96.2147 38.4481 95.9576 37.8208L97.8236 37.0189C97.9882 37.4199 98.2916 37.79 98.7335 38.1293C99.186 38.4582 99.7 38.7257 100.276 38.9312C100.852 39.1266 101.422 39.2242 101.987 39.2242C102.615 39.2242 103.201 39.1213 103.746 38.9158C104.291 38.7102 104.733 38.4172 105.072 38.0367C105.421 37.6461 105.596 37.1885 105.596 36.6642C105.596 36.0987 105.411 35.6567 105.041 35.3379C104.671 35.009 104.203 34.7519 103.638 34.5669C103.072 34.3714 102.491 34.1864 101.895 34.0117C100.805 33.7136 99.8439 33.3845 99.0111 33.0247C98.1783 32.6649 97.5256 32.2073 97.0525 31.6522C96.5899 31.0866 96.3586 30.3618 96.3586 29.4777C96.3586 28.542 96.6207 27.7351 97.1451 27.0565C97.6798 26.3676 98.3737 25.8382 99.227 25.4681C100.091 25.0876 101.011 24.8975 101.987 24.8975C103.242 24.8975 104.383 25.17 105.411 25.7148C106.45 26.2596 107.2 26.9844 107.663 27.8893L105.92 28.9225C105.735 28.5011 105.442 28.136 105.041 27.8276C104.64 27.5191 104.183 27.2775 103.668 27.1028C103.165 26.9281 102.651 26.8355 102.126 26.8252C101.468 26.8148 100.857 26.9126 100.291 27.1182C99.7258 27.3136 99.2682 27.6066 98.9186 27.9972C98.5793 28.3878 98.4097 28.8659 98.4097 29.4314C98.4097 29.997 98.5793 30.4288 98.9186 30.7269C99.2578 31.0148 99.7154 31.2512 100.291 31.4363C100.877 31.611 101.535 31.8167 102.265 32.0531C103.201 32.3512 104.08 32.6905 104.902 33.071C105.725 33.4514 106.388 33.9242 106.892 34.4898C107.395 35.0553 107.642 35.7698 107.632 36.6334C107.632 37.5587 107.354 38.3657 106.799 39.0546C106.244 39.7435 105.524 40.2729 104.64 40.643C103.756 41.0028 102.81 41.1673 101.802 41.1365Z" fill="url(#paint2_linear_216_2)"/>
</g>
<defs>
<linearGradient id="paint0_linear_216_2" x1="19.4003" y1="16.3031" x2="2.39557" y2="43.2556" gradientUnits="userSpaceOnUse">
<stop stop-color="#F05454"/>
<stop offset="1" stop-color="#8A3030"/>
</linearGradient>
<linearGradient id="paint1_linear_216_2" x1="24.8223" y1="26.3462" x2="24.8223" y2="45.3557" gradientUnits="userSpaceOnUse">
<stop stop-color="#F05454"/>
<stop offset="1" stop-color="#8A3030"/>
</linearGradient>
<linearGradient id="paint2_linear_216_2" x1="76.7517" y1="24.8975" x2="76.7517" y2="41.2445" gradientUnits="userSpaceOnUse">
<stop stop-color="#F05454"/>
<stop offset="1" stop-color="#8A3030"/>
</linearGradient>
<clipPath id="clip0_216_2">
<rect width="108.434" height="60" fill="white" transform="translate(0.349396)"/>
</clipPath>
</defs>
</svg>
